<?xml version="1.0" standalone="no"?>
<!DOCTYPE svg PUBLIC "-//W3C//DTD SVG 1.1//EN" "http://www.w3.org/Graphics/SVG/1.1/DTD/svg11.dtd" >
<svg xmlns="http://www.w3.org/2000/svg">
<metadata></metadata>
<defs>
<font id="brownielightlight" horiz-adv-x="1024" >
<font-face units-per-em="2048" ascent="1597" descent="-451" />
<missing-glyph horiz-adv-x="500" />
<glyph horiz-adv-x="0" />
<glyph horiz-adv-x="682" />
<glyph unicode=" " />
<glyph unicode="!" />
<glyph unicode="&#x22;" />
<glyph unicode="#" />
<glyph unicode="$" />
<glyph unicode="%" />
<glyph unicode="&#x26;" horiz-adv-x="1824" d="M0 4v287l315 317l-315 318v671h733v-671l-317 -318l401 -401l92 94v535h70v-564l-113 -114l88 -88h318v-70h-346l-109 109l-104 -105h-713zM70 76h614l82 82l-399 401l-297 -297v-186zM70 954l297 -297l297 297v574h-594v-574z" />
<glyph unicode="'" />
<glyph unicode="(" />
<glyph unicode=")" />
<glyph unicode="*" />
<glyph unicode="+" />
<glyph unicode="," horiz-adv-x="1083" d="M0 0v70h70v-70h-70zM35 0h35v-70h-35v70z" />
<glyph unicode="-" />
<glyph unicode="." horiz-adv-x="1083" d="M0 0v70h70v-70h-70z" />
<glyph unicode="/" />
<glyph unicode="0" horiz-adv-x="1288" d="M0 317v1280h418l317 -317v-1280h-418zM70 346l276 -276h320v188l-596 594v-506zM70 950l596 -594v895l-277 277h-319v-578z" />
<glyph unicode="1" horiz-adv-x="876" d="M0 1528v69h324v-1597h-70v1528h-254z" />
<glyph unicode="2" horiz-adv-x="1288" d="M0 0v418l221 223h445v561l-326 326h-340v69h369l366 -366v-662h-483l-182 -180v-319h665v-70h-735z" />
<glyph unicode="3" horiz-adv-x="1288" d="M2 0v70h664v225l-277 274h-387v72h387l277 277v610h-664v69h733v-708l-282 -283l282 -282v-324h-733z" />
<glyph unicode="4" horiz-adv-x="1288" d="M0 571v1028h70v-958h596v958h69v-1599h-69v571h-666z" />
<glyph unicode="5" horiz-adv-x="1288" d="M0 0v70h387l279 278v221h-666v1028h735v-69h-665v-887h665v-324l-317 -317h-418z" />
<glyph unicode="6" horiz-adv-x="1288" d="M0 0v1231l367 366h368v-69h-340l-325 -326v-561h661v-324l-319 -317h-412zM70 70h313l276 276v223h-589v-499z" />
<glyph unicode="7" horiz-adv-x="1288" d="M0 1274v323h735v-1597h-69v1528h-596v-254h-70z" />
<glyph unicode="8" horiz-adv-x="1288" d="M0 0v287l317 319l-317 318v673h735v-673l-317 -318l317 -319v-287h-735zM70 70h596v188l-297 297l-299 -297v-188zM70 952l299 -297l297 297v576h-596v-576z" />
<glyph unicode="9" horiz-adv-x="1288" d="M0 889v708h735v-1597h-69v569h-349zM70 918l276 -277h320v887h-596v-610z" />
<glyph unicode=":" />
<glyph unicode=";" />
<glyph unicode="&#x3c;" />
<glyph unicode="=" />
<glyph unicode="&#x3e;" />
<glyph unicode="?" />
<glyph unicode="@" />
<glyph unicode="A" horiz-adv-x="1288" d="M0 0v1597h418l317 -317v-1280h-69v569h-596v-569h-70zM70 641h596v610l-277 277h-319v-887z" />
<glyph unicode="B" horiz-adv-x="1288" d="M0 0v1597h735v-708l-282 -283l282 -282v-324h-735zM70 70h596v225l-277 274h-319v-499zM70 641h319l277 277v610h-596v-887z" />
<glyph unicode="C" horiz-adv-x="1288" d="M0 362v869l367 366h368v-69h-340l-325 -326v-809l325 -323h340v-70h-368z" />
<glyph unicode="D" horiz-adv-x="1288" d="M0 0v1597h418l317 -317v-963l-317 -317h-418zM70 70h319l277 276v905l-277 277h-319v-1458z" />
<glyph unicode="E" horiz-adv-x="1288" d="M0 0v1597h735v-69h-665v-887h665v-72h-665v-499h665v-70h-735z" />
<glyph unicode="F" horiz-adv-x="1288" d="M0 0v1599h735v-69h-665v-889h665v-70h-665v-571h-70z" />
<glyph unicode="G" horiz-adv-x="1288" d="M0 317v965l317 317h418v-69h-389l-276 -277v-907l276 -276h320v501h-220v70h289v-641h-418z" />
<glyph unicode="H" horiz-adv-x="1288" d="M0 0v1599h70v-956h596v956h69v-1599h-69v571h-596v-571h-70z" />
<glyph unicode="I" horiz-adv-x="622" d="M0 0v1597h70v-1597h-70z" />
<glyph unicode="J" horiz-adv-x="1288" d="M0 0v641h70v-571h282l314 311v1216h69v-1245l-352 -352h-383z" />
<glyph unicode="K" horiz-adv-x="1288" d="M0 0v1597h70v-956h319l277 277v679h69v-708l-280 -283l280 -282v-324h-69v295l-277 274h-319v-569h-70z" />
<glyph unicode="L" horiz-adv-x="1288" d="M0 0v1597h70v-1527h665v-70h-735z" />
<glyph unicode="M" horiz-adv-x="1822" d="M0 0v1294l336 336l299 -299l301 299l334 -336v-1294h-70v1266l-264 264l-266 -264v-1266h-70v1266l-264 264l-266 -264v-1266h-70z" />
<glyph unicode="N" horiz-adv-x="1288" d="M0 0v1597h418l317 -317v-1280h-69v1251l-277 277h-319v-1528h-70z" />
<glyph unicode="O" horiz-adv-x="1288" d="M0 317v1280h418l317 -317v-1280h-418zM70 346l276 -276h320v1183l-277 277h-319v-1184z" />
<glyph unicode="P" horiz-adv-x="1288" d="M0 0v1597h735v-710l-315 -314h-350v-573h-70zM70 639h319l275 276v611h-594v-887z" />
<glyph unicode="Q" horiz-adv-x="1585" d="M0 317v1280h418l317 -317v-1210h297v-70h-715zM70 346l276 -276h320v1181l-277 277h-319v-1182z" />
<glyph unicode="R" horiz-adv-x="1288" d="M0 0v1597h735v-708l-282 -283l282 -282v-324h-69v295l-277 274h-319v-569h-70zM70 641h319l277 277v610h-596v-887z" />
<glyph unicode="S" horiz-adv-x="1288" d="M0 0v70h389l277 276v225h-666v660l367 366h368v-69h-340l-325 -326v-561h665v-324l-317 -317h-418z" />
<glyph unicode="T" horiz-adv-x="1290" d="M0 1528v69h737v-69h-334v-1528h-69v1528h-334z" />
<glyph unicode="U" horiz-adv-x="1288" d="M0 317v1280h70v-1251l276 -276h320v1527h69v-1597h-418z" />
<glyph unicode="V" horiz-adv-x="1288" d="M0 313v1284h68v-1255l301 -297l297 297v1255h69v-1284l-366 -366z" />
<glyph unicode="W" horiz-adv-x="1837" d="M0 287v1310h70v-1280l266 -270l268 270v1280h76v-1280l268 -270l266 270v1280h70v-1310l-336 -340l-301 303l-311 -303z" />
<glyph unicode="X" horiz-adv-x="1288" d="M0 0v287l317 319l-317 318v673h70v-645l299 -297l297 297v645h69v-673l-317 -318l317 -319v-287h-69v258l-297 297l-299 -297v-258h-70z" />
<glyph unicode="Y" horiz-adv-x="1288" d="M0 924v673h70v-645l299 -297l297 297v645h69v-673l-334 -334v-590h-67v590z" />
<glyph unicode="Z" horiz-adv-x="1290" d="M0 0v281l668 673v574h-668v69h737v-669l-667 -676v-182h665v-70h-735z" />
<glyph unicode="[" />
<glyph unicode="\" />
<glyph unicode="]" />
<glyph unicode="^" />
<glyph unicode="_" />
<glyph unicode="`" />
<glyph unicode="a" horiz-adv-x="1288" d="M0 0v1597h418l317 -317v-1280h-69v569h-596v-569h-70zM70 641h596v610l-277 277h-319v-887z" />
<glyph unicode="b" horiz-adv-x="1288" d="M0 0v1597h735v-708l-282 -283l282 -282v-324h-735zM70 70h596v225l-277 274h-319v-499zM70 641h319l277 277v610h-596v-887z" />
<glyph unicode="c" horiz-adv-x="1288" d="M0 362v869l367 366h368v-69h-340l-325 -326v-809l325 -323h340v-70h-368z" />
<glyph unicode="d" horiz-adv-x="1288" d="M0 0v1597h418l317 -317v-963l-317 -317h-418zM70 70h319l277 276v905l-277 277h-319v-1458z" />
<glyph unicode="e" horiz-adv-x="1288" d="M0 0v1597h735v-69h-665v-887h665v-72h-665v-499h665v-70h-735z" />
<glyph unicode="f" horiz-adv-x="1288" d="M0 0v1599h735v-69h-665v-889h665v-70h-665v-571h-70z" />
<glyph unicode="g" horiz-adv-x="1288" d="M0 317v965l317 317h418v-69h-389l-276 -277v-907l276 -276h320v501h-220v70h289v-641h-418z" />
<glyph unicode="h" horiz-adv-x="1288" d="M0 0v1599h70v-956h596v956h69v-1599h-69v571h-596v-571h-70z" />
<glyph unicode="i" horiz-adv-x="622" d="M0 0v1597h70v-1597h-70z" />
<glyph unicode="j" horiz-adv-x="1288" d="M0 0v641h70v-571h282l314 311v1216h69v-1245l-352 -352h-383z" />
<glyph unicode="k" horiz-adv-x="1288" d="M0 0v1597h70v-956h319l277 277v679h69v-708l-280 -283l280 -282v-324h-69v295l-277 274h-319v-569h-70z" />
<glyph unicode="l" horiz-adv-x="1288" d="M0 0v1597h70v-1527h665v-70h-735z" />
<glyph unicode="m" horiz-adv-x="1822" d="M0 0v1294l336 336l299 -299l301 299l334 -336v-1294h-70v1266l-264 264l-266 -264v-1266h-70v1266l-264 264l-266 -264v-1266h-70z" />
<glyph unicode="n" horiz-adv-x="1288" d="M0 0v1597h418l317 -317v-1280h-69v1251l-277 277h-319v-1528h-70z" />
<glyph unicode="o" horiz-adv-x="1288" d="M0 317v1280h418l317 -317v-1280h-418zM70 346l276 -276h320v1183l-277 277h-319v-1184z" />
<glyph unicode="p" horiz-adv-x="1288" d="M0 0v1597h735v-710l-315 -314h-350v-573h-70zM70 639h319l275 276v611h-594v-887z" />
<glyph unicode="q" horiz-adv-x="1585" d="M0 317v1280h418l317 -317v-1210h297v-70h-715zM70 346l276 -276h320v1181l-277 277h-319v-1182z" />
<glyph unicode="r" horiz-adv-x="1288" d="M0 0v1597h735v-708l-282 -283l282 -282v-324h-69v295l-277 274h-319v-569h-70zM70 641h319l277 277v610h-596v-887z" />
<glyph unicode="s" horiz-adv-x="1288" d="M0 0v70h389l277 276v225h-666v660l367 366h368v-69h-340l-325 -326v-561h665v-324l-317 -317h-418z" />
<glyph unicode="t" horiz-adv-x="1290" d="M0 1528v69h737v-69h-334v-1528h-69v1528h-334z" />
<glyph unicode="u" horiz-adv-x="1288" d="M0 317v1280h70v-1251l276 -276h320v1527h69v-1597h-418z" />
<glyph unicode="v" horiz-adv-x="1288" d="M0 313v1284h68v-1255l301 -297l297 297v1255h69v-1284l-366 -366z" />
<glyph unicode="w" horiz-adv-x="1837" d="M0 287v1310h70v-1280l266 -270l268 270v1280h76v-1280l268 -270l266 270v1280h70v-1310l-336 -340l-301 303l-311 -303z" />
<glyph unicode="x" horiz-adv-x="1288" d="M0 0v287l317 319l-317 318v673h70v-645l299 -297l297 297v645h69v-673l-317 -318l317 -319v-287h-69v258l-297 297l-299 -297v-258h-70z" />
<glyph unicode="y" horiz-adv-x="1288" d="M0 924v673h70v-645l299 -297l297 297v645h69v-673l-334 -334v-590h-67v590z" />
<glyph unicode="z" horiz-adv-x="1290" d="M0 0v281l668 673v574h-668v69h737v-669l-667 -676v-182h665v-70h-735z" />
<glyph unicode="{" />
<glyph unicode="|" />
<glyph unicode="}" />
<glyph unicode="~" />
<glyph unicode="&#xa0;" />
<glyph unicode="&#xa1;" />
<glyph unicode="&#xa2;" />
<glyph unicode="&#xa3;" />
<glyph unicode="&#xa4;" />
<glyph unicode="&#xa5;" />
<glyph unicode="&#xa6;" />
<glyph unicode="&#xa7;" />
<glyph unicode="&#xa8;" />
<glyph unicode="&#xa9;" />
<glyph unicode="&#xaa;" />
<glyph unicode="&#xab;" />
<glyph unicode="&#xac;" />
<glyph unicode="&#xad;" />
<glyph unicode="&#xae;" />
<glyph unicode="&#xaf;" />
<glyph unicode="&#xb0;" />
<glyph unicode="&#xb1;" />
<glyph unicode="&#xb2;" />
<glyph unicode="&#xb3;" />
<glyph unicode="&#xb4;" />
<glyph unicode="&#xb5;" />
<glyph unicode="&#xb6;" />
<glyph unicode="&#xb7;" />
<glyph unicode="&#xb8;" />
<glyph unicode="&#xb9;" />
<glyph unicode="&#xba;" />
<glyph unicode="&#xbb;" />
<glyph unicode="&#xbc;" />
<glyph unicode="&#xbd;" />
<glyph unicode="&#xbe;" />
<glyph unicode="&#xbf;" />
<glyph unicode="&#xc0;" />
<glyph unicode="&#xc1;" />
<glyph unicode="&#xc2;" />
<glyph unicode="&#xc3;" />
<glyph unicode="&#xc4;" />
<glyph unicode="&#xc5;" />
<glyph unicode="&#xc6;" />
<glyph unicode="&#xc7;" />
<glyph unicode="&#xc8;" />
<glyph unicode="&#xc9;" />
<glyph unicode="&#xca;" />
<glyph unicode="&#xcb;" />
<glyph unicode="&#xcc;" />
<glyph unicode="&#xcd;" />
<glyph unicode="&#xce;" />
<glyph unicode="&#xcf;" />
<glyph unicode="&#xd0;" />
<glyph unicode="&#xd1;" />
<glyph unicode="&#xd2;" />
<glyph unicode="&#xd3;" />
<glyph unicode="&#xd4;" />
<glyph unicode="&#xd5;" />
<glyph unicode="&#xd6;" />
<glyph unicode="&#xd7;" />
<glyph unicode="&#xd8;" />
<glyph unicode="&#xd9;" />
<glyph unicode="&#xda;" />
<glyph unicode="&#xdb;" />
<glyph unicode="&#xdc;" />
<glyph unicode="&#xdd;" />
<glyph unicode="&#xde;" />
<glyph unicode="&#xdf;" />
<glyph unicode="&#xe0;" />
<glyph unicode="&#xe1;" />
<glyph unicode="&#xe2;" />
<glyph unicode="&#xe3;" />
<glyph unicode="&#xe4;" />
<glyph unicode="&#xe5;" />
<glyph unicode="&#xe6;" />
<glyph unicode="&#xe7;" />
<glyph unicode="&#xe8;" />
<glyph unicode="&#xe9;" />
<glyph unicode="&#xea;" />
<glyph unicode="&#xeb;" />
<glyph unicode="&#xec;" />
<glyph unicode="&#xed;" />
<glyph unicode="&#xee;" />
<glyph unicode="&#xef;" />
<glyph unicode="&#xf0;" />
<glyph unicode="&#xf1;" />
<glyph unicode="&#xf2;" />
<glyph unicode="&#xf3;" />
<glyph unicode="&#xf4;" />
<glyph unicode="&#xf5;" />
<glyph unicode="&#xf6;" />
<glyph unicode="&#xf7;" />
<glyph unicode="&#xf8;" />
<glyph unicode="&#xf9;" />
<glyph unicode="&#xfa;" />
<glyph unicode="&#xfb;" />
<glyph unicode="&#xfc;" />
<glyph unicode="&#xfd;" />
<glyph unicode="&#xfe;" />
<glyph unicode="&#xff;" />
<glyph unicode="&#x152;" />
<glyph unicode="&#x153;" />
<glyph unicode="&#x178;" />
<glyph unicode="&#x2c6;" />
<glyph unicode="&#x2dc;" />
<glyph unicode="&#x2000;" horiz-adv-x="815" />
<glyph unicode="&#x2001;" horiz-adv-x="1630" />
<glyph unicode="&#x2002;" horiz-adv-x="815" />
<glyph unicode="&#x2003;" horiz-adv-x="1630" />
<glyph unicode="&#x2004;" horiz-adv-x="543" />
<glyph unicode="&#x2005;" horiz-adv-x="407" />
<glyph unicode="&#x2006;" horiz-adv-x="271" />
<glyph unicode="&#x2007;" horiz-adv-x="271" />
<glyph unicode="&#x2008;" horiz-adv-x="203" />
<glyph unicode="&#x2009;" horiz-adv-x="326" />
<glyph unicode="&#x200a;" horiz-adv-x="90" />
<glyph unicode="&#x2010;" />
<glyph unicode="&#x2011;" />
<glyph unicode="&#x2012;" />
<glyph unicode="&#x2013;" />
<glyph unicode="&#x2014;" />
<glyph unicode="&#x2018;" />
<glyph unicode="&#x2019;" />
<glyph unicode="&#x201a;" />
<glyph unicode="&#x201c;" />
<glyph unicode="&#x201d;" />
<glyph unicode="&#x201e;" />
<glyph unicode="&#x2022;" />
<glyph unicode="&#x2026;" />
<glyph unicode="&#x202f;" horiz-adv-x="326" />
<glyph unicode="&#x2039;" />
<glyph unicode="&#x203a;" />
<glyph unicode="&#x205f;" horiz-adv-x="407" />
<glyph unicode="&#x20ac;" />
<glyph unicode="&#x2122;" />
<glyph unicode="&#x25fc;" horiz-adv-x="1597" d="M0 0v1597h1597v-1597h-1597z" />
<glyph unicode="&#xfb01;" />
<glyph unicode="&#xfb02;" />
</font>
</defs>
</svg>
