<?xml version="1.0" standalone="no"?>
<!DOCTYPE svg PUBLIC "-//W3C//DTD SVG 1.1//EN" "http://www.w3.org/Graphics/SVG/1.1/DTD/svg11.dtd" >
<svg xmlns="http://www.w3.org/2000/svg">
<metadata></metadata>
<defs>
<font id="brownieregularbold" horiz-adv-x="1024" >
<font-face units-per-em="2048" ascent="1597" descent="-451" />
<missing-glyph horiz-adv-x="500" />
<glyph horiz-adv-x="0" />
<glyph horiz-adv-x="682" />
<glyph unicode=" " />
<glyph unicode="!" />
<glyph unicode="&#x22;" />
<glyph unicode="#" />
<glyph unicode="$" />
<glyph unicode="%" />
<glyph unicode="&#x26;" horiz-adv-x="1851" d="M0 4v354l264 265l-264 266v708h801v-708l-264 -266l278 -277l21 21v530h192v-610l-78 -78l19 -16h329v-193h-409l-74 74l-70 -70h-745zM193 199h473l12 10l-277 278l-208 -208v-80zM193 969l208 -209l207 209v436h-415v-436z" />
<glyph unicode="'" />
<glyph unicode="(" />
<glyph unicode=")" />
<glyph unicode="*" />
<glyph unicode="+" />
<glyph unicode="," horiz-adv-x="1228" d="M0 0v197h197v-197h-197zM98 0v-197h99v197h-99z" />
<glyph unicode="-" />
<glyph unicode="." horiz-adv-x="1228" d="M0 0v197h197v-197h-197z" />
<glyph unicode="/" />
<glyph unicode="0" horiz-adv-x="1357" d="M0 330v1263h473l332 -329v-1264h-475zM195 408l213 -213h202v79l-415 414v-280zM195 963l415 -416v639l-217 213h-198v-436z" />
<glyph unicode="1" horiz-adv-x="980" d="M0 1407v195h428v-1602h-195v1407h-233z" />
<glyph unicode="2" horiz-adv-x="1382" d="M0 0v475l244 244h391v428l-260 258h-375v194h455l374 -374v-701h-505l-129 -129v-200h634v-195h-829z" />
<glyph unicode="3" horiz-adv-x="1357" d="M0 0v193h612v116l-217 213h-395v195h395l217 215v473h-612v192h805v-743l-234 -231l234 -234v-389h-805z" />
<glyph unicode="4" horiz-adv-x="1359" d="M2 524v1075h195v-882h415v882h195v-1599h-195v524h-610z" />
<glyph unicode="5" horiz-adv-x="1384" d="M0 0v195h422l217 215v114h-635v1075h827v-194h-634v-686h634v-389l-329 -330h-502z" />
<glyph unicode="6" horiz-adv-x="1382" d="M0 1225l375 372h454v-192h-372l-264 -262l2 -426h634v-389l-329 -328h-498v621zM195 193h223l219 217v112h-442v-329z" />
<glyph unicode="7" horiz-adv-x="1359" d="M0 1171v428h807v-1599h-195v1405h-417v-234h-195z" />
<glyph unicode="8" horiz-adv-x="1357" d="M0 0v354l264 267l-264 266v710h803v-710l-264 -266l266 -267v-354h-805zM193 193h417v81l-207 209l-210 -209v-81zM193 967l210 -209l207 209v438h-417v-438z" />
<glyph unicode="9" horiz-adv-x="1359" d="M0 856v743h807v-1599h-195v524h-282zM195 936l217 -217h200v686h-417v-469z" />
<glyph unicode=":" />
<glyph unicode=";" />
<glyph unicode="&#x3c;" />
<glyph unicode="=" />
<glyph unicode="&#x3e;" />
<glyph unicode="?" />
<glyph unicode="@" />
<glyph unicode="A" horiz-adv-x="1351" d="M0 0v1597h469l330 -329v-1268h-195v524h-409v-524h-195zM195 719h411v471l-215 215h-196v-686z" />
<glyph unicode="B" horiz-adv-x="1357" d="M0 0v1597h805v-743l-234 -231l234 -234v-389h-805zM195 195h417v114l-217 215h-200v-329zM195 719h200l217 217v469h-417v-686z" />
<glyph unicode="C" horiz-adv-x="1357" d="M0 373v850l375 374h430v-194h-352l-258 -258v-694l258 -256h352v-195h-430z" />
<glyph unicode="D" horiz-adv-x="1357" d="M0 0v1597h473l332 -329v-938l-332 -330h-473zM195 195h200l217 215v780l-217 215h-200v-1210z" />
<glyph unicode="E" horiz-adv-x="1357" d="M0 0v1597h805v-194h-610v-686h610v-195h-610v-327h610v-195h-805z" />
<glyph unicode="F" horiz-adv-x="1355" d="M0 0v1597h803v-194h-608v-684h608v-195h-608v-524h-195z" />
<glyph unicode="G" horiz-adv-x="1357" d="M0 330v938l330 329h475v-194h-397l-213 -215v-778l213 -215h202v329h-202v195h397v-719h-475z" />
<glyph unicode="H" horiz-adv-x="1357" d="M0 0v1597h193v-880h419v880h193v-1597h-193v524h-419v-524h-193z" />
<glyph unicode="I" horiz-adv-x="745" d="M0 0v1597h193v-1597h-193z" />
<glyph unicode="J" horiz-adv-x="1359" d="M0 0v719h195v-524h167l250 247v1157h195v-1237l-363 -362h-444z" />
<glyph unicode="K" horiz-adv-x="1359" d="M0 0v1599h195v-880h200l217 217v663h195v-743l-234 -233l234 -234v-389h-195v309l-217 215h-200v-524h-195z" />
<glyph unicode="L" horiz-adv-x="1359" d="M0 0v1599h195v-1404h612v-195h-807z" />
<glyph unicode="M" horiz-adv-x="1843" d="M0 0v1274l371 373l274 -275l275 275l370 -373v-1274h-194v1196l-176 176l-179 -176v-1196h-192v1196l-178 176l-176 -176v-1196h-195z" />
<glyph unicode="N" horiz-adv-x="1359" d="M0 0v1602h475l332 -330v-1272h-195v1192l-217 215h-200v-1407h-195z" />
<glyph unicode="O" horiz-adv-x="1359" d="M0 330v1272h475l332 -330v-1272h-477zM195 410l215 -215h202v997l-217 215h-200v-997z" />
<glyph unicode="P" horiz-adv-x="1357" d="M0 0v1599h805v-743l-330 -332h-280v-524h-195zM195 719h200l215 217v469h-415v-686z" />
<glyph unicode="Q" horiz-adv-x="1564" d="M0 330v1269h475l330 -329v-1075h207v-195h-682zM195 410l215 -215h202v997l-217 215h-200v-997z" />
<glyph unicode="R" horiz-adv-x="1359" d="M0 0v1602h807v-746l-234 -233l234 -234v-389h-195v309l-217 215h-200v-524h-195zM195 719h200l217 217v471h-417v-688z" />
<glyph unicode="S" horiz-adv-x="1359" d="M0 0v195h397l215 213v116h-612v701l375 374h432v-194h-352l-260 -258v-428h612v-389l-332 -330h-475z" />
<glyph unicode="T" horiz-adv-x="1359" d="M0 1407v195h807v-195h-307v-1407h-195v1407h-305z" />
<glyph unicode="U" horiz-adv-x="1359" d="M0 330v1269h195v-1189l215 -215h202v1404h195v-1599h-477z" />
<glyph unicode="V" horiz-adv-x="1370" d="M0 307v1295h195v-1215l215 -213l213 213v1215h194v-1295l-407 -407z" />
<glyph unicode="W" horiz-adv-x="1830" d="M0 268v1334h193v-1254l176 -176l174 176v1254h192v-1254l176 -176l174 176v1254h193v-1334l-367 -368l-272 270l-270 -270z" />
<glyph unicode="X" horiz-adv-x="1359" d="M0 0v354l266 269l-266 264v712h195v-630l208 -211l209 211v630h195v-712l-268 -264l268 -269v-354h-195v274l-209 211l-208 -211v-274h-195z" />
<glyph unicode="Y" horiz-adv-x="1359" d="M0 889v710h195v-630l208 -211l209 211v630h195v-710l-307 -307v-582h-193v582z" />
<glyph unicode="Z" horiz-adv-x="1361" d="M0 0v350l616 621v434h-616v194h809v-708l-616 -621v-75h612v-195h-805z" />
<glyph unicode="[" />
<glyph unicode="\" />
<glyph unicode="]" />
<glyph unicode="^" />
<glyph unicode="_" />
<glyph unicode="`" />
<glyph unicode="a" horiz-adv-x="1361" d="M4 0v1599h475l330 -329v-1270h-195v524h-415v-524h-195zM199 719h415v471l-215 215h-200v-686z" />
<glyph unicode="b" horiz-adv-x="1359" d="M0 0v1599h807v-743l-234 -233l234 -234v-389h-807zM195 195h417v114l-217 215h-200v-329zM195 719h200l217 217v469h-417v-686z" />
<glyph unicode="c" horiz-adv-x="1359" d="M0 373v854l375 375h432v-195h-352l-260 -260v-694l260 -258h352v-195h-432z" />
<glyph unicode="d" horiz-adv-x="1359" d="M0 0v1599h475l332 -329v-940l-332 -330h-475zM195 195h200l217 215v780l-217 215h-200v-1210z" />
<glyph unicode="e" horiz-adv-x="1359" d="M0 0v1602h807v-195h-612v-688h612v-195h-612v-329h612v-195h-807z" />
<glyph unicode="f" horiz-adv-x="1359" d="M0 0v1602h807v-195h-612v-688h612v-195h-612v-524h-195z" />
<glyph unicode="g" horiz-adv-x="1359" d="M0 330v940l330 329h477v-194h-397l-215 -215v-780l215 -215h202v329h-202v195h397v-719h-477z" />
<glyph unicode="h" horiz-adv-x="1357" d="M0 0v1597h193v-880h419v880h193v-1597h-193v524h-419v-524h-193z" />
<glyph unicode="i" horiz-adv-x="745" d="M0 0v1597h193v-1597h-193z" />
<glyph unicode="j" horiz-adv-x="1359" d="M0 0v719h195v-524h167l250 247v1157h195v-1237l-363 -362h-444z" />
<glyph unicode="k" horiz-adv-x="1359" d="M0 0v1599h195v-880h200l217 217v663h195v-743l-234 -233l234 -234v-389h-195v309l-217 215h-200v-524h-195z" />
<glyph unicode="l" horiz-adv-x="1359" d="M0 0v1599h195v-1404h612v-195h-807z" />
<glyph unicode="m" horiz-adv-x="1843" d="M0 0v1274l371 373l274 -275l275 275l370 -373v-1274h-194v1196l-176 176l-179 -176v-1196h-192v1196l-178 176l-176 -176v-1196h-195z" />
<glyph unicode="n" horiz-adv-x="1359" d="M0 0v1602h475l332 -330v-1272h-195v1192l-217 215h-200v-1407h-195z" />
<glyph unicode="o" horiz-adv-x="1359" d="M0 330v1272h475l332 -330v-1272h-477zM195 410l215 -215h202v997l-217 215h-200v-997z" />
<glyph unicode="p" horiz-adv-x="1357" d="M0 0v1599h805v-743l-330 -332h-280v-524h-195zM195 719h200l215 217v469h-415v-686z" />
<glyph unicode="q" horiz-adv-x="1564" d="M0 330v1269h475l330 -329v-1075h207v-195h-682zM195 410l215 -215h202v997l-217 215h-200v-997z" />
<glyph unicode="r" horiz-adv-x="1359" d="M0 0v1602h807v-746l-234 -233l234 -234v-389h-195v309l-217 215h-200v-524h-195zM195 719h200l217 217v471h-417v-688z" />
<glyph unicode="s" horiz-adv-x="1359" d="M0 0v195h397l215 213v116h-612v701l375 374h432v-194h-352l-260 -258v-428h612v-389l-332 -330h-475z" />
<glyph unicode="t" horiz-adv-x="1359" d="M0 1407v195h807v-195h-307v-1407h-195v1407h-305z" />
<glyph unicode="u" horiz-adv-x="1359" d="M0 330v1269h195v-1189l215 -215h202v1404h195v-1599h-477z" />
<glyph unicode="v" horiz-adv-x="1370" d="M0 307v1295h195v-1215l215 -213l213 213v1215h194v-1295l-407 -407z" />
<glyph unicode="w" horiz-adv-x="1830" d="M0 268v1334h193v-1254l176 -176l174 176v1254h192v-1254l176 -176l174 176v1254h193v-1334l-367 -368l-272 270l-270 -270z" />
<glyph unicode="x" horiz-adv-x="1359" d="M0 0v354l266 269l-266 264v712h195v-630l208 -211l209 211v630h195v-712l-268 -264l268 -269v-354h-195v274l-209 211l-208 -211v-274h-195z" />
<glyph unicode="y" horiz-adv-x="1359" d="M0 889v710h195v-630l208 -211l209 211v630h195v-710l-307 -307v-582h-193v582z" />
<glyph unicode="z" horiz-adv-x="1361" d="M0 0v350l616 621v434h-616v194h809v-708l-616 -621v-75h612v-195h-805z" />
<glyph unicode="{" />
<glyph unicode="|" />
<glyph unicode="}" />
<glyph unicode="~" />
<glyph unicode="&#xa0;" />
<glyph unicode="&#xa1;" />
<glyph unicode="&#xa2;" />
<glyph unicode="&#xa3;" />
<glyph unicode="&#xa4;" />
<glyph unicode="&#xa5;" />
<glyph unicode="&#xa6;" />
<glyph unicode="&#xa7;" />
<glyph unicode="&#xa8;" />
<glyph unicode="&#xa9;" />
<glyph unicode="&#xaa;" />
<glyph unicode="&#xab;" />
<glyph unicode="&#xac;" />
<glyph unicode="&#xad;" />
<glyph unicode="&#xae;" />
<glyph unicode="&#xaf;" />
<glyph unicode="&#xb0;" />
<glyph unicode="&#xb1;" />
<glyph unicode="&#xb2;" />
<glyph unicode="&#xb3;" />
<glyph unicode="&#xb4;" />
<glyph unicode="&#xb5;" />
<glyph unicode="&#xb6;" />
<glyph unicode="&#xb7;" />
<glyph unicode="&#xb8;" />
<glyph unicode="&#xb9;" />
<glyph unicode="&#xba;" />
<glyph unicode="&#xbb;" />
<glyph unicode="&#xbc;" />
<glyph unicode="&#xbd;" />
<glyph unicode="&#xbe;" />
<glyph unicode="&#xbf;" />
<glyph unicode="&#xc0;" />
<glyph unicode="&#xc1;" />
<glyph unicode="&#xc2;" />
<glyph unicode="&#xc3;" />
<glyph unicode="&#xc4;" />
<glyph unicode="&#xc5;" />
<glyph unicode="&#xc6;" />
<glyph unicode="&#xc7;" />
<glyph unicode="&#xc8;" />
<glyph unicode="&#xc9;" />
<glyph unicode="&#xca;" />
<glyph unicode="&#xcb;" />
<glyph unicode="&#xcc;" />
<glyph unicode="&#xcd;" />
<glyph unicode="&#xce;" />
<glyph unicode="&#xcf;" />
<glyph unicode="&#xd0;" />
<glyph unicode="&#xd1;" />
<glyph unicode="&#xd2;" />
<glyph unicode="&#xd3;" />
<glyph unicode="&#xd4;" />
<glyph unicode="&#xd5;" />
<glyph unicode="&#xd6;" />
<glyph unicode="&#xd7;" />
<glyph unicode="&#xd8;" />
<glyph unicode="&#xd9;" />
<glyph unicode="&#xda;" />
<glyph unicode="&#xdb;" />
<glyph unicode="&#xdc;" />
<glyph unicode="&#xdd;" />
<glyph unicode="&#xde;" />
<glyph unicode="&#xdf;" />
<glyph unicode="&#xe0;" />
<glyph unicode="&#xe1;" />
<glyph unicode="&#xe2;" />
<glyph unicode="&#xe3;" />
<glyph unicode="&#xe4;" />
<glyph unicode="&#xe5;" />
<glyph unicode="&#xe6;" />
<glyph unicode="&#xe7;" />
<glyph unicode="&#xe8;" />
<glyph unicode="&#xe9;" />
<glyph unicode="&#xea;" />
<glyph unicode="&#xeb;" />
<glyph unicode="&#xec;" />
<glyph unicode="&#xed;" />
<glyph unicode="&#xee;" />
<glyph unicode="&#xef;" />
<glyph unicode="&#xf0;" />
<glyph unicode="&#xf1;" />
<glyph unicode="&#xf2;" />
<glyph unicode="&#xf3;" />
<glyph unicode="&#xf4;" />
<glyph unicode="&#xf5;" />
<glyph unicode="&#xf6;" />
<glyph unicode="&#xf7;" />
<glyph unicode="&#xf8;" />
<glyph unicode="&#xf9;" />
<glyph unicode="&#xfa;" />
<glyph unicode="&#xfb;" />
<glyph unicode="&#xfc;" />
<glyph unicode="&#xfd;" />
<glyph unicode="&#xfe;" />
<glyph unicode="&#xff;" />
<glyph unicode="&#x152;" />
<glyph unicode="&#x153;" />
<glyph unicode="&#x178;" />
<glyph unicode="&#x2c6;" />
<glyph unicode="&#x2dc;" />
<glyph unicode="&#x2000;" horiz-adv-x="823" />
<glyph unicode="&#x2001;" horiz-adv-x="1647" />
<glyph unicode="&#x2002;" horiz-adv-x="823" />
<glyph unicode="&#x2003;" horiz-adv-x="1647" />
<glyph unicode="&#x2004;" horiz-adv-x="549" />
<glyph unicode="&#x2005;" horiz-adv-x="411" />
<glyph unicode="&#x2006;" horiz-adv-x="274" />
<glyph unicode="&#x2007;" horiz-adv-x="274" />
<glyph unicode="&#x2008;" horiz-adv-x="205" />
<glyph unicode="&#x2009;" horiz-adv-x="329" />
<glyph unicode="&#x200a;" horiz-adv-x="91" />
<glyph unicode="&#x2010;" />
<glyph unicode="&#x2011;" />
<glyph unicode="&#x2012;" />
<glyph unicode="&#x2013;" />
<glyph unicode="&#x2014;" />
<glyph unicode="&#x2018;" />
<glyph unicode="&#x2019;" />
<glyph unicode="&#x201a;" />
<glyph unicode="&#x201c;" />
<glyph unicode="&#x201d;" />
<glyph unicode="&#x201e;" />
<glyph unicode="&#x2022;" />
<glyph unicode="&#x2026;" />
<glyph unicode="&#x202f;" horiz-adv-x="329" />
<glyph unicode="&#x2039;" />
<glyph unicode="&#x203a;" />
<glyph unicode="&#x205f;" horiz-adv-x="411" />
<glyph unicode="&#x20ac;" />
<glyph unicode="&#x2122;" />
<glyph unicode="&#x25fc;" horiz-adv-x="1597" d="M0 0v1597h1597v-1597h-1597z" />
<glyph unicode="&#xfb01;" />
<glyph unicode="&#xfb02;" />
</font>
</defs>
</svg>
